<?xml version="1.0" standalone="no"?>
<svg xmlns:xlink="http://www.w3.org/1999/xlink" id="wave" style="transform:rotate(180deg); transition: 0.3s" viewBox="0 0 1440 490" version="1.1" xmlns="http://www.w3.org/2000/svg"><defs><linearGradient id="sw-gradient-0" x1="0" x2="0" y1="1" y2="0"><stop stop-color="rgba(216.013, 58.209, 241.709, 1)" offset="0%"/><stop stop-color="rgba(236.744, 191.773, 248.54, 1)" offset="100%"/></linearGradient></defs><path style="transform:translate(0, 0px); opacity:1" fill="url(#sw-gradient-0)" d="M0,294L144,196L288,98L432,196L576,294L720,343L864,245L1008,49L1152,0L1296,392L1440,392L1584,196L1728,294L1872,0L2016,294L2160,441L2304,392L2448,441L2592,294L2736,147L2880,49L3024,49L3168,441L3312,49L3456,49L3456,490L3312,490L3168,490L3024,490L2880,490L2736,490L2592,490L2448,490L2304,490L2160,490L2016,490L1872,490L1728,490L1584,490L1440,490L1296,490L1152,490L1008,490L864,490L720,490L576,490L432,490L288,490L144,490L0,490Z"/><defs><linearGradient id="sw-gradient-1" x1="0" x2="0" y1="1" y2="0"><stop stop-color="rgba(150.2, 62, 243, 1)" offset="0%"/><stop stop-color="rgba(162.966, 11, 255, 1)" offset="100%"/></linearGradient></defs><path style="transform:translate(0, 50px); opacity:0.9" fill="url(#sw-gradient-1)" d="M0,0L144,294L288,147L432,245L576,49L720,0L864,49L1008,392L1152,0L1296,98L1440,196L1584,343L1728,441L1872,0L2016,0L2160,0L2304,441L2448,196L2592,147L2736,441L2880,343L3024,49L3168,343L3312,0L3456,98L3456,490L3312,490L3168,490L3024,490L2880,490L2736,490L2592,490L2448,490L2304,490L2160,490L2016,490L1872,490L1728,490L1584,490L1440,490L1296,490L1152,490L1008,490L864,490L720,490L576,490L432,490L288,490L144,490L0,490Z"/></svg>